# xmcd
#
# Track frame offsets:
#	150
#	11951
#	25200
#	35730
#	48122
#	56966
#	67942
#	86943
#	102585
#	120769
#	138497
#	151147
#	167779
#	180526
#
# Disc length: 2539 seconds
#
# Revision: 2
# Processed by: cddbd v1.5.1PL2 Copyright (c) Steve Scherf et al.
# Submitted via: audiograbber 1.83.01
#
DISCID=bb09e90e
DTITLE=Various Artist - Best of Country Disc One
DYEAR=2004
DGENRE=Country
TTITLE0=Patsy Cline - Walkin' After Midnight
TTITLE1=Faron Young - Four in the Morning
TTITLE2=Dave Dudley - Six Days on the Road
TTITLE3=Skeeter Davis - End of the World
TTITLE4=Johnny Paycheck - Mr. Lovemaker
TTITLE5=Cal Smith - San Antonio Rose
TTITLE6=Mac Wiseman - That Silver Haired Daddy of Mine
TTITLE7=Melba Montgomery - Blue Kentucky Girl
TTITLE8=Tommy Overstreet - Georgia
TTITLE9=Donna Fargo - Till I Gain Control Again
TTITLE10=Jack Greene - I Can't Stop Loving You
TTITLE11=David Houston - For the Good Times
TTITLE12=Lynn Anderson - Mansion on the Hill
TTITLE13=Freddy Weller - The Wurlitzer Prize
EXTD=
EXTT0=
EXTT1=
EXTT2=
EXTT3=
EXTT4=
EXTT5=
EXTT6=
EXTT7=
EXTT8=
EXTT9=
EXTT10=
EXTT11=
EXTT12=
EXTT13=
PLAYORDER=
